<svg width="120" height="62" viewBox="0 0 120 62" fill="none" xmlns="http://www.w3.org/2000/svg">
<path d="M1.07356 57.707L0 53.5342H1.90881L2.98237 57.707C3.30456 58.9346 4.03161 59.9726 5.23647 59.9726H7.40669C8.61155 59.9726 9.3386 58.9346 9.66079 57.707L10.7343 53.5342H12.6432L11.5696 57.707C10.997 59.9252 9.70942 61.8809 7.40669 61.8809H5.23647C2.93495 61.8809 1.65836 59.9617 1.07356 57.707Z" fill="white"/>
<path d="M18.1444 53.4139H21.7468C24.0483 53.4139 25.9097 55.2979 25.9097 57.5866V61.8797H24.0009V59.9714H15.8903V61.8797H13.9814V57.5866C13.9814 55.2614 15.8416 53.4139 18.1444 53.4139ZM24.0009 58.0643V57.5878C24.0009 56.3237 22.9517 55.3222 21.7468 55.3222H18.1444C16.9395 55.3222 15.8903 56.3237 15.8903 57.5878V58.0643H24.0009Z" fill="white"/>
<path d="M28.0479 53.5342H29.9567V59.9726H38.0673V61.8809H28.0491V53.5342H28.0479Z" fill="white"/>
<path d="M39.4307 57.707C39.4307 55.2869 41.303 53.4139 43.6045 53.4139H51.3577V55.3222H43.6045C42.3522 55.3222 41.3383 56.359 41.3383 57.707C41.3383 59.0549 42.3644 60.0917 43.6045 60.0917H51.3577V62H43.6045C41.303 62 39.4307 60.1282 39.4307 57.707Z" fill="white"/>
<path d="M53.3799 53.5342H65.3069V55.4425H55.2887V56.754H61.7057V58.6623H55.2887V59.9738H65.3069V61.8821H53.3799V53.5355V53.5342Z" fill="white"/>
<path d="M67.3704 53.5342H76.208C77.9856 53.5342 79.2974 55.2395 79.2974 56.8136C79.2974 58.1251 78.5217 59.3296 77.2342 59.8547L78.9631 61.8821H76.4585L74.9315 60.082H69.278V61.8821H67.3691V53.5355L67.3704 53.5342ZM76.0172 58.1725C76.7807 58.1725 77.3886 57.5769 77.3886 56.8136C77.3886 56.0977 76.7928 55.4425 76.0172 55.4425H69.278V58.1725H76.0172Z" fill="white"/>
<path d="M85.8079 55.4413H80.7988V53.533H92.7259V55.4413H87.7168V61.8797H85.8079V55.4413Z" fill="white"/>
<path d="M94.3645 53.5342H103.202C104.98 53.5342 106.292 55.2395 106.292 56.8136C106.292 58.1251 105.516 59.3296 104.228 59.8547L105.957 61.8821H103.453L101.926 60.082H96.2721V61.8821H94.3633V53.5355L94.3645 53.5342ZM103.011 58.1725C103.775 58.1725 104.383 57.5769 104.383 56.8136C104.383 56.0977 103.786 55.4425 103.011 55.4425H96.2721V58.1725H103.011Z" fill="white"/>
<path d="M112.236 53.4139H115.839C118.14 53.4139 120.002 55.2979 120.002 57.5866V61.8797H118.093V59.9714H109.982V61.8797H108.073V57.5866C108.073 55.2614 109.933 53.4139 112.236 53.4139ZM118.091 58.0643V57.5878C118.091 56.3237 117.042 55.3222 115.837 55.3222H112.235C111.03 55.3222 109.981 56.3237 109.981 57.5878V58.0643H118.091Z" fill="white"/>
<path d="M74.9951 18.4436C74.313 18.1348 73.6225 17.8407 72.927 17.5636C72.2048 17.2731 71.479 16.9996 70.7459 16.7443C70.4881 17.408 70.2012 18.0801 69.8851 18.7559C69.5763 19.4172 69.237 20.082 68.8674 20.7469C67.1726 23.7904 65.0389 26.4365 62.5294 28.611C62.4747 28.6584 62.42 28.7058 62.3641 28.752C63.0352 29.2114 63.7404 29.6308 64.4674 30.0051C67.0024 27.7237 69.1653 24.995 70.9015 21.8809C71.3307 21.1115 71.7209 20.3397 72.0747 19.5752C72.7763 19.8547 73.4705 20.1501 74.1586 20.4613C73.7161 21.4519 73.2188 22.451 72.662 23.4501C70.6437 27.0722 68.1003 30.23 65.0997 32.8372C64.7313 32.6658 64.3641 32.4896 64.0176 32.3158C64.0115 32.3121 64.0042 32.3097 63.9969 32.306C62.9343 31.798 61.9106 31.2024 60.9453 30.5339C60.7361 30.3892 60.5282 30.2397 60.324 30.0866C60.2182 30.01 60.1136 29.9322 60.0091 29.8556H60.0067C59.9908 29.8423 59.9738 29.8301 59.9556 29.8167C59.4437 29.4339 58.9416 29.0315 58.4553 28.6098C55.9471 26.4389 53.8158 23.7941 52.1185 20.7493C50.865 18.5007 49.9763 16.2472 49.3477 14.1542C49.5203 14.0727 49.6942 13.9937 49.8693 13.9172C50.42 13.6753 50.9817 13.4528 51.5519 13.2511C52.1185 13.0481 52.6948 12.8682 53.2747 12.7053C53.4048 12.6701 53.5349 12.6348 53.665 12.602C54.6012 12.365 55.5519 12.1754 56.5112 12.0368C57.8218 11.8302 59.158 11.7232 60.4942 11.7232C61.8304 11.7232 63.0911 11.8241 64.3665 12.0186C64.4297 11.8083 64.4893 11.598 64.5465 11.3853C64.6899 10.8469 64.8188 10.3023 64.927 9.75295C63.4681 9.51715 61.9763 9.3956 60.4942 9.3956C57.6176 9.3956 54.7045 9.85383 52.0601 10.7071C52.0504 10.7107 52.0407 10.7132 52.031 10.7168C50.9866 11.0353 49.9605 11.4169 48.9635 11.8533C48.6802 11.9785 48.3957 12.1073 48.1149 12.2434C47.6127 12.4841 47.1155 12.7394 46.6279 13.0116C46.6413 13.087 46.6583 13.1696 46.679 13.2572C46.8443 13.9086 47.0328 14.5747 47.248 15.2554C47.9155 17.3861 48.8322 19.6359 50.0857 21.8834C51.9155 25.1663 54.2194 28.0215 56.9331 30.371C57.496 30.8596 58.0723 31.3191 58.6632 31.753C58.7945 31.8502 58.927 31.9475 59.0608 32.0435C59.2796 32.2015 59.5033 32.3571 59.7343 32.5114C59.8218 32.5698 59.9082 32.6293 59.9981 32.6877C60.0857 32.746 60.1756 32.8032 60.2668 32.8603C60.2802 32.87 60.2936 32.8773 60.307 32.8846C60.3398 32.9089 60.3738 32.9296 60.4091 32.9514C60.4225 32.9612 60.437 32.9697 60.4529 32.9782C60.4674 32.9867 60.4808 32.9952 60.4966 33.0037C61.0279 33.3404 61.5811 33.6637 62.1489 33.97C62.4383 34.128 62.7556 34.2897 63.0863 34.4526C63.8644 34.8403 64.7155 35.2305 65.468 35.5611C66.1063 35.053 66.769 34.4902 67.4413 33.8679C69.8839 31.612 72.4711 28.5879 74.7009 24.5829C75.2832 23.5376 75.8024 22.496 76.2632 21.4677C76.5696 20.7882 76.8504 20.1136 77.1082 19.45C76.4127 19.0987 75.71 18.7632 75 18.446L74.9951 18.4436Z" fill="white"/>
<path d="M60.0014 0C52.3564 0 45.3631 2.11006 39.9844 5.60211C40.0196 6.31559 40.0792 7.16885 40.1826 8.13758C40.8683 7.71095 41.6014 7.28068 42.399 6.84797C42.4063 6.84311 42.4123 6.84068 42.4184 6.83824C47.4215 3.92111 53.6075 2.32763 60.0026 2.32763C66.3977 2.32763 72.5959 3.92476 77.6026 6.84797C77.4458 8.77692 77.1309 11.0268 76.5436 13.4565C75.8591 13.1465 75.1698 12.8524 74.4743 12.5753C74.8634 10.9271 75.1114 9.39074 75.2658 8.03427C70.9765 5.79659 65.7862 4.57382 60.4938 4.57382C57.3801 4.57382 54.3029 5.00045 51.4215 5.80509L51.4178 5.79294C51.3169 5.82576 51.2184 5.85736 51.1187 5.89018C49.9601 6.22686 48.8354 6.62554 47.7534 7.08255C45.7607 7.85438 44.1145 8.62256 42.6847 9.38587C41.9041 9.80157 41.1905 10.2148 40.5181 10.6281C40.5278 10.6889 40.5388 10.7508 40.5497 10.8128C40.5619 10.887 40.5765 10.9648 40.5886 11.0401C40.6032 11.1216 40.6166 11.2042 40.6312 11.2869C40.6531 11.4072 40.675 11.5288 40.6981 11.6503C40.7114 11.722 40.7236 11.7913 40.7382 11.863C40.7686 12.0259 40.8014 12.19 40.8354 12.3553C40.8427 12.3893 40.8488 12.4233 40.8561 12.4574C40.8987 12.664 40.9424 12.8718 40.9886 13.0821C41.7424 16.5098 43.0458 20.5184 45.3096 24.5805C50.2932 33.5276 57.0664 37.5933 60.0063 39.1005C60.6579 38.7663 61.4993 38.3044 62.4683 37.693C61.802 37.3843 61.1309 37.0585 60.5655 36.7559C60.3795 36.655 60.1947 36.5541 60.0123 36.4508C60.0099 36.452 60.0075 36.4532 60.005 36.4556C58.2421 35.4577 56.5461 34.2544 54.9461 32.8712C51.9272 30.2567 49.3692 27.0868 47.3424 23.4477C45.0895 19.4062 43.8105 15.3636 43.0981 11.812C45.2671 10.5928 47.9272 9.38101 51.7473 8.13515C54.5193 7.33051 57.5029 6.90145 60.4962 6.90145C64.7929 6.90145 69.0737 7.78024 72.7309 9.3956C72.6129 10.1285 72.4646 10.9174 72.275 11.7463C72.1205 12.427 71.9382 13.1356 71.7266 13.8661C72.4598 14.1262 73.1892 14.4046 73.9114 14.6999C74.6032 14.9807 75.2901 15.2773 75.9698 15.5884C76.6822 15.9178 77.3899 16.2606 78.0889 16.6204C78.3151 15.8886 78.5145 15.174 78.6895 14.4775C79.6294 10.7764 79.9212 7.62344 80.0196 5.60089C74.6373 2.11006 67.6452 0 60.0014 0Z" fill="white"/>
<path d="M60.4914 33.0037C60.4914 33.0037 60.4926 33.0037 60.4926 33.0025C60.4634 32.9855 60.4342 32.9672 60.4062 32.9502C60.4342 32.9697 60.4634 32.9867 60.4901 33.0037H60.4914Z" fill="white"/>
<path d="M60.4906 24.1697C58.831 22.5908 57.3975 20.7262 56.2206 18.6137C55.6431 17.5769 55.1337 16.4855 54.6899 15.3453C54.5854 15.3684 54.482 15.3952 54.3787 15.4207C53.7307 15.5848 53.0851 15.7756 52.4492 15.992C52.9124 17.2123 53.4839 18.48 54.1866 19.7441C55.6699 22.4072 57.5313 24.7166 59.7197 26.6115C59.9714 26.8303 60.2292 27.0443 60.493 27.2521C60.7544 27.0455 61.0109 26.8315 61.2614 26.6152C63.4523 24.7178 65.3137 22.4072 66.7982 19.7429C68.5355 16.6277 69.4632 13.493 69.958 11.0632C69.2504 10.7995 68.5197 10.5661 67.7732 10.3619C67.6529 10.9611 67.513 11.5555 67.3562 12.1414C67.1349 12.9594 66.8772 13.7713 66.5817 14.5711C66.5672 14.6088 66.5538 14.6464 66.5392 14.6841C66.0444 16.0649 65.451 17.3776 64.7641 18.6113C63.5884 20.7214 62.1538 22.5871 60.493 24.1697H60.4906Z" fill="white"/>
</svg>
