<svg width="200" height="103" viewBox="0 0 200 103" fill="none" xmlns="http://www.w3.org/2000/svg">
<g clip-path="url(#clip0_614_20813)">
<path d="M2.13261 95.868L0.349609 88.9359H3.51983L5.30283 95.868C5.83793 97.9074 7.04545 99.6319 9.04653 99.6319H12.6509C14.652 99.6319 15.8595 97.9074 16.3946 95.868L18.1776 88.9359H21.3478L19.5648 95.868C18.6137 99.5531 16.4754 102.802 12.6509 102.802H9.04653C5.22408 102.802 3.10387 99.6137 2.13261 95.868Z" fill="white"/>
<path d="M30.4852 88.736H36.4682C40.2907 88.736 43.3822 91.8658 43.3822 95.6681V102.8H40.2119V99.6298H26.7415V102.8H23.5713V95.6681C23.5713 91.8052 26.6607 88.736 30.4852 88.736ZM40.2119 96.4616V95.6701C40.2119 93.57 38.4693 91.9062 36.4682 91.9062H30.4852C28.4841 91.9062 26.7415 93.57 26.7415 95.6701V96.4616H40.2119Z" fill="white"/>
<path d="M46.9316 88.9359H50.1019V99.6319H63.5723V102.802H46.9337V88.9359H46.9316Z" fill="white"/>
<path d="M65.8379 95.868C65.8379 91.8476 68.9475 88.736 72.77 88.736H85.6468V91.9062H72.77C70.6901 91.9062 69.0061 93.6286 69.0061 95.868C69.0061 98.1073 70.7103 99.8297 72.77 99.8297H85.6468V103H72.77C68.9475 103 65.8379 99.8903 65.8379 95.868Z" fill="white"/>
<path d="M89.0049 88.9359H108.814V92.1061H92.1751V94.2849H102.833V97.4551H92.1751V99.6339H108.814V102.804H89.0049V88.9379V88.9359Z" fill="white"/>
<path d="M112.24 88.9359H126.918C129.87 88.9359 132.049 91.7689 132.049 94.3839C132.049 96.5626 130.761 98.5637 128.622 99.436L131.494 102.804H127.334L124.798 99.8136H115.409V102.804H112.238V88.9379L112.24 88.9359ZM126.601 96.6414C127.869 96.6414 128.879 95.6519 128.879 94.3839C128.879 93.1945 127.89 92.1061 126.601 92.1061H115.409V96.6414H126.601Z" fill="white"/>
<path d="M142.862 92.1041H134.543V88.9338H154.352V92.1041H146.033V102.8H142.862V92.1041Z" fill="white"/>
<path d="M157.074 88.9359H171.752C174.704 88.9359 176.883 91.7689 176.883 94.3839C176.883 96.5626 175.595 98.5637 173.456 99.436L176.328 102.804H172.168L169.632 99.8136H160.242V102.804H157.072V88.9379L157.074 88.9359ZM171.435 96.6414C172.703 96.6414 173.713 95.6519 173.713 94.3839C173.713 93.1945 172.721 92.1061 171.435 92.1061H160.242V96.6414H171.435Z" fill="white"/>
<path d="M186.755 88.736H192.738C196.56 88.736 199.652 91.8658 199.652 95.6681V102.8H196.481V99.6298H183.011V102.8H179.841V95.6681C179.841 91.8052 182.93 88.736 186.755 88.736ZM196.479 96.4616V95.6701C196.479 93.57 194.737 91.9062 192.736 91.9062H186.753C184.752 91.9062 183.009 93.57 183.009 95.6701V96.4616H196.479Z" fill="white"/>
<path d="M124.903 30.6401C123.77 30.1272 122.623 29.6385 121.468 29.1781C120.269 28.6955 119.064 28.2412 117.846 27.8172C117.418 28.9197 116.941 30.0363 116.416 31.159C115.903 32.2575 115.34 33.362 114.726 34.4666C111.911 39.5228 108.368 43.9187 104.2 47.5311C104.109 47.6099 104.018 47.6886 103.925 47.7653C105.04 48.5286 106.211 49.2253 107.419 49.8472C111.629 46.0571 115.221 41.5238 118.104 36.3505C118.817 35.0723 119.465 33.7901 120.053 32.52C121.218 32.9844 122.371 33.4751 123.514 33.992C122.779 35.6377 121.953 37.2975 121.028 38.9574C117.676 44.9747 113.452 50.2208 108.469 54.5521C107.857 54.2673 107.247 53.9745 106.671 53.6858C106.661 53.6797 106.649 53.6757 106.637 53.6696C104.872 52.8256 103.172 51.8362 101.569 50.7256C101.221 50.4853 100.876 50.2369 100.537 49.9825C100.361 49.8553 100.188 49.726 100.014 49.5988H100.01C99.9836 49.5766 99.9554 49.5564 99.9251 49.5342C99.075 48.8981 98.241 48.2298 97.4333 47.5291C93.2676 43.9227 89.7279 39.5288 86.909 34.4706C84.8271 30.735 83.3511 26.9913 82.3071 23.5141C82.5938 23.3788 82.8826 23.2476 83.1734 23.1204C84.0881 22.7185 85.021 22.349 85.968 22.0138C86.909 21.6766 87.8661 21.3778 88.8293 21.1072C89.0453 21.0486 89.2614 20.9901 89.4775 20.9355C91.0323 20.5418 92.6113 20.2268 94.2045 19.9966C96.3813 19.6533 98.6004 19.4756 100.82 19.4756C103.039 19.4756 105.133 19.6432 107.251 19.9663C107.356 19.617 107.455 19.2676 107.55 18.9143C107.788 18.0198 108.002 17.1151 108.182 16.2024C105.759 15.8107 103.281 15.6088 100.82 15.6088C96.0421 15.6088 91.2039 16.37 86.8121 17.7875C86.7959 17.7936 86.7797 17.7976 86.7636 17.8037C85.0291 18.3327 83.3248 18.9668 81.669 19.6917C81.1985 19.8997 80.726 20.1137 80.2596 20.3399C79.4256 20.7397 78.5998 21.1637 77.79 21.616C77.8123 21.7412 77.8405 21.8785 77.8748 22.0239C78.1495 23.1062 78.4624 24.2128 78.8199 25.3436C79.9284 28.8833 81.4509 32.621 83.5328 36.3546C86.5718 41.8086 90.3982 46.5518 94.9052 50.455C95.8401 51.2667 96.7973 52.03 97.7786 52.7509C97.9967 52.9124 98.2168 53.074 98.4389 53.2335C98.8024 53.496 99.1739 53.7544 99.5576 54.0109C99.703 54.1078 99.8463 54.2068 99.9958 54.3037C100.141 54.4006 100.291 54.4955 100.442 54.5904C100.464 54.6066 100.486 54.6187 100.509 54.6308C100.563 54.6712 100.62 54.7055 100.678 54.7419C100.7 54.758 100.725 54.7721 100.751 54.7863C100.775 54.8004 100.797 54.8146 100.824 54.8287C101.706 55.388 102.625 55.9251 103.568 56.434C104.048 56.6965 104.575 56.9651 105.125 57.2356C106.417 57.8798 107.83 58.528 109.08 59.0772C110.14 58.2331 111.241 57.2982 112.358 56.2644C116.414 52.5166 120.711 47.4927 124.415 40.8393C125.382 39.1028 126.244 37.3723 127.009 35.664C127.518 34.5352 127.985 33.4145 128.413 32.312C127.258 31.7285 126.091 31.1711 124.911 30.6441L124.903 30.6401Z" fill="url(#paint0_linear_614_20813)"/>
<path d="M100.002 0C87.3047 0 75.69 3.50542 66.7568 9.30673C66.8154 10.492 66.9143 11.9095 67.086 13.5189C68.2248 12.8101 69.4424 12.0953 70.7671 11.3765C70.7792 11.3684 70.7893 11.3643 70.7994 11.3603C79.1086 6.51411 89.3825 3.86687 100.004 3.86687C110.625 3.86687 120.919 6.52016 129.234 11.3765C128.974 14.581 128.451 18.3186 127.476 22.3551C126.339 21.8402 125.194 21.3516 124.039 20.8912C124.685 18.1531 125.097 15.6007 125.353 13.3473C118.23 9.62981 109.609 7.59844 100.82 7.59844C95.6483 7.59844 90.5376 8.3072 85.7519 9.64395L85.7459 9.62375C85.5783 9.67827 85.4147 9.73077 85.2491 9.78529C83.3248 10.3446 81.457 11.0069 79.6599 11.7662C76.3503 13.0484 73.6162 14.3246 71.2416 15.5927C69.9452 16.2832 68.7599 16.9698 67.6433 17.6563C67.6594 17.7573 67.6776 17.8603 67.6958 17.9633C67.716 18.0864 67.7402 18.2157 67.7604 18.3409C67.7846 18.4762 67.8068 18.6135 67.8311 18.7508C67.8674 18.9507 67.9038 19.1526 67.9421 19.3545C67.9643 19.4737 67.9845 19.5888 68.0088 19.7079C68.0593 19.9785 68.1138 20.2511 68.1703 20.5257C68.1824 20.5822 68.1925 20.6388 68.2046 20.6953C68.2753 21.0386 68.348 21.3839 68.4247 21.7332C69.6767 27.4275 71.8413 34.087 75.6012 40.8353C83.8781 55.699 95.1273 62.4534 100.01 64.9573C101.092 64.402 102.49 63.6347 104.099 62.619C102.992 62.1061 101.878 61.565 100.939 61.0622C100.63 60.8946 100.323 60.727 100.02 60.5553C100.016 60.5574 100.012 60.5594 100.008 60.5634C97.0799 58.9056 94.2631 56.9065 91.6057 54.6086C86.5919 50.2652 82.3434 44.999 78.9773 38.9534C75.2357 32.2394 73.1114 25.5233 71.9281 19.6231C75.5305 17.5978 79.9486 15.5846 86.2931 13.5149C90.897 12.1781 95.8522 11.4653 100.824 11.4653C107.96 11.4653 115.069 12.9252 121.143 15.6088C120.947 16.8264 120.701 18.1369 120.386 19.514C120.13 20.6448 119.827 21.8221 119.475 23.0356C120.693 23.4677 121.905 23.9302 123.104 24.4208C124.253 24.8873 125.394 25.38 126.523 25.8969C127.706 26.4441 128.881 27.0135 130.042 27.6112C130.418 26.3957 130.749 25.2083 131.04 24.0513C132.601 17.9027 133.085 12.6647 133.249 9.30471C124.31 3.50542 112.697 0 100.002 0Z" fill="url(#paint1_linear_614_20813)"/>
<path d="M100.815 54.8287C100.815 54.8287 100.817 54.8287 100.817 54.8267C100.769 54.7984 100.72 54.7681 100.674 54.7399C100.72 54.7722 100.769 54.8004 100.813 54.8287H100.815Z" fill="url(#paint2_linear_614_20813)"/>
<path d="M100.813 40.1528C98.0571 37.5298 95.6764 34.4323 93.7217 30.9228C92.7626 29.2004 91.9165 27.3871 91.1795 25.493C91.0058 25.5314 90.8342 25.5758 90.6626 25.6182C89.5863 25.8908 88.5141 26.2079 87.458 26.5673C88.2273 28.5946 89.1764 30.7007 90.3435 32.8007C92.807 37.2249 95.8985 41.0615 99.5331 44.2095C99.9511 44.573 100.379 44.9283 100.817 45.2736C101.252 44.9304 101.678 44.575 102.094 44.2155C105.732 41.0635 108.824 37.2249 111.289 32.7987C114.175 27.6234 115.715 22.4157 116.537 18.3792C115.362 17.941 114.148 17.5533 112.909 17.2141C112.709 18.2096 112.477 19.197 112.216 20.1703C111.849 21.5293 111.42 22.8781 110.93 24.2068C110.906 24.2694 110.883 24.332 110.859 24.3946C110.037 26.6884 109.052 28.8692 107.911 30.9188C105.958 34.4242 103.576 37.5237 100.817 40.1528H100.813Z" fill="url(#paint3_linear_614_20813)"/>
</g>
<defs>
<linearGradient id="paint0_linear_614_20813" x1="76.9985" y1="75.5462" x2="124.314" y2="-11.4694" gradientUnits="userSpaceOnUse">
<stop stop-color="#FF7300"/>
<stop offset="0.18" stop-color="#F97C00"/>
<stop offset="0.47" stop-color="#EA9502"/>
<stop offset="0.55" stop-color="#E59E03"/>
<stop offset="0.87" stop-color="#E5C500"/>
<stop offset="0.99" stop-color="#BF6F00"/>
</linearGradient>
<linearGradient id="paint1_linear_614_20813" x1="69.5555" y1="71.4997" x2="116.871" y2="-15.5179" gradientUnits="userSpaceOnUse">
<stop stop-color="#FF7300"/>
<stop offset="0.18" stop-color="#F97C00"/>
<stop offset="0.47" stop-color="#EA9502"/>
<stop offset="0.55" stop-color="#E59E03"/>
<stop offset="0.87" stop-color="#E5C500"/>
<stop offset="0.99" stop-color="#BF6F00"/>
</linearGradient>
<linearGradient id="paint2_linear_614_20813" x1="86.6141" y1="80.7744" x2="131.338" y2="-1.47152" gradientUnits="userSpaceOnUse">
<stop stop-color="#FF7300"/>
<stop offset="0.18" stop-color="#F97C00"/>
<stop offset="0.47" stop-color="#EA9502"/>
<stop offset="0.55" stop-color="#E59E03"/>
<stop offset="0.87" stop-color="#E5C500"/>
<stop offset="0.99" stop-color="#BF6F00"/>
</linearGradient>
<linearGradient id="paint3_linear_614_20813" x1="75.0214" y1="74.47" x2="122.337" y2="-12.5456" gradientUnits="userSpaceOnUse">
<stop stop-color="#FF7300"/>
<stop offset="0.18" stop-color="#F97C00"/>
<stop offset="0.47" stop-color="#EA9502"/>
<stop offset="0.55" stop-color="#E59E03"/>
<stop offset="0.87" stop-color="#E5C500"/>
<stop offset="0.99" stop-color="#BF6F00"/>
</linearGradient>
<clipPath id="clip0_614_20813">
<rect width="199.3" height="103" fill="white" transform="translate(0.349609)"/>
</clipPath>
</defs>
</svg>
