<svg width="23" height="26" viewBox="0 0 23 26" fill="none" xmlns="http://www.w3.org/2000/svg">
<path d="M11.2717 21.3334C11.4117 22.1734 11.7034 22.955 12.1117 23.6667H3.00008C1.70508 23.6667 0.666748 22.6284 0.666748 21.3334V2.66671C0.666748 2.04787 0.912581 1.45438 1.35017 1.01679C1.78775 0.579207 2.38124 0.333374 3.00008 0.333374H12.3334L19.3334 7.33337V13.2717C18.9484 13.2134 18.5634 13.1667 18.1667 13.1667C17.7701 13.1667 17.3851 13.2134 17.0001 13.2717V8.50004H11.1667V2.66671H3.00008V21.3334H11.2717ZM22.8334 17.8334L19.3334 14.9167V16.6667H14.6667V19H19.3334V20.75L22.8334 17.8334ZM17.0001 19.5834L13.5001 22.5L17.0001 25.4167V23.6667H21.6667V21.3334H17.0001V19.5834Z" fill="#002E72"/>
</svg>
