<svg width="40" height="39" viewBox="0 0 40 39" fill="none" xmlns="http://www.w3.org/2000/svg">
<path d="M34.9827 18.3955C34.3012 18.0876 33.6112 17.7942 32.9163 17.5178C32.1946 17.2281 31.4694 16.9553 30.7368 16.7007C30.4793 17.3626 30.1926 18.033 29.8767 18.7071C29.5681 19.3666 29.2292 20.0297 28.8599 20.6929C27.1664 23.7285 25.0343 26.3677 22.5269 28.5365C22.4722 28.5838 22.4176 28.6311 22.3617 28.6771C23.0323 29.1354 23.7369 29.5536 24.4634 29.927C26.9963 27.6515 29.1575 24.9299 30.8923 21.8239C31.3212 21.0565 31.7111 20.2867 32.0647 19.5242C32.7656 19.803 33.4593 20.0976 34.1469 20.408C33.7047 21.396 33.2078 22.3925 32.6514 23.389C30.6348 27.0017 28.0933 30.1513 25.0951 32.7517C24.727 32.5808 24.3601 32.405 24.0139 32.2316C24.0078 32.228 24.0005 32.2256 23.9932 32.2219C22.9314 31.7152 21.9085 31.1211 20.944 30.4544C20.735 30.3101 20.5273 30.161 20.3232 30.0082C20.2175 29.9319 20.113 29.8543 20.0085 29.7779H20.0061C19.9903 29.7646 19.9733 29.7524 19.9551 29.7391C19.4436 29.3572 18.9419 28.956 18.456 28.5353C15.9497 26.3701 13.8201 23.7321 12.1242 20.6953C10.8717 18.4525 9.98362 16.2049 9.35555 14.1173C9.52806 14.0361 9.70178 13.9573 9.87672 13.8809C10.427 13.6396 10.9883 13.4178 11.5581 13.2165C12.1242 13.0141 12.7 12.8347 13.2795 12.6722C13.4095 12.6371 13.5395 12.6019 13.6695 12.5692C14.6049 12.3328 15.5549 12.1436 16.5134 12.0054C17.823 11.7993 19.1581 11.6927 20.4933 11.6927C21.8284 11.6927 23.0882 11.7933 24.3625 11.9873C24.4257 11.7775 24.4852 11.5678 24.5423 11.3556C24.6857 10.8186 24.8145 10.2755 24.9226 9.72751C23.4648 9.49232 21.9741 9.37109 20.4933 9.37109C17.6189 9.37109 14.7082 9.82813 12.0659 10.6792C12.0561 10.6828 12.0464 10.6852 12.0367 10.6889C10.9932 11.0065 9.96783 11.3872 8.97166 11.8224C8.6886 11.9473 8.40433 12.0758 8.1237 12.2115C7.62196 12.4516 7.12509 12.7062 6.63794 12.9777C6.6513 13.0529 6.66831 13.1353 6.68896 13.2226C6.85418 13.8724 7.04248 14.5367 7.25751 15.2156C7.92446 17.3408 8.84045 19.5848 10.093 21.8264C11.9213 25.1008 14.2234 27.9485 16.935 30.2919C17.4974 30.7793 18.0733 31.2375 18.6637 31.6703C18.7949 31.7673 18.9273 31.8643 19.0609 31.9601C19.2796 32.1177 19.5032 32.2728 19.734 32.4268C19.8214 32.485 19.9077 32.5444 19.9976 32.6026C20.0851 32.6608 20.175 32.7178 20.2661 32.7747C20.2794 32.7844 20.2928 32.7917 20.3062 32.799C20.339 32.8232 20.373 32.8438 20.4082 32.8657C20.4216 32.8754 20.4362 32.8838 20.4519 32.8923C20.4665 32.9008 20.4799 32.9093 20.4957 32.9178C21.0266 33.2536 21.5793 33.5761 22.1467 33.8816C22.4358 34.0392 22.7529 34.2004 23.0833 34.3629C23.8608 34.7496 24.7112 35.1387 25.4632 35.4685C26.101 34.9617 26.7631 34.4004 27.4349 33.7797C29.8755 31.5297 32.4607 28.5135 34.6887 24.5189C35.2706 23.4763 35.7894 22.4374 36.2498 21.4118C36.5559 20.7341 36.8366 20.0612 37.0941 19.3993C36.3992 19.049 35.697 18.7144 34.9876 18.398L34.9827 18.3955Z" fill="#1A1A1A"/>
<path d="M20.0012 0C12.3623 0 5.37448 2.10457 0 5.58753C0.0352305 6.29916 0.0947579 7.1502 0.19802 8.11641C0.883193 7.69089 1.61574 7.26173 2.41268 6.83015C2.41997 6.8253 2.42605 6.82288 2.43212 6.82045C7.43121 3.91091 13.6111 2.32157 20.0012 2.32157C26.3913 2.32157 32.5846 3.91455 37.5873 6.83015C37.4306 8.75409 37.116 10.9981 36.5292 13.4215C35.8452 13.1123 35.1564 12.819 34.4615 12.5426C34.8503 10.8987 35.0981 9.3663 35.2524 8.01337C30.9664 5.7815 25.7802 4.56192 20.492 4.56192C17.3808 4.56192 14.306 4.98744 11.4268 5.78999L11.4232 5.77787C11.3224 5.8106 11.224 5.84212 11.1243 5.87485C9.96659 6.21066 8.84286 6.6083 7.76165 7.06413C5.77052 7.83394 4.12562 8.60012 2.69696 9.36145C1.91703 9.77606 1.20391 10.1883 0.532102 10.6004C0.541821 10.6611 0.552755 10.7229 0.563688 10.7847C0.575837 10.8587 0.590415 10.9362 0.602563 11.0114C0.617141 11.0926 0.630505 11.1751 0.645083 11.2575C0.66695 11.3775 0.688817 11.4988 0.711899 11.62C0.725263 11.6915 0.737411 11.7606 0.751989 11.8321C0.78236 11.9946 0.815161 12.1583 0.849177 12.3231C0.856466 12.3571 0.86254 12.391 0.869829 12.425C0.912349 12.6311 0.956083 12.8384 1.00225 13.0481C1.75545 16.4668 3.05777 20.465 5.31981 24.5165C10.2995 33.4403 17.0674 37.4955 20.0049 38.9988C20.656 38.6654 21.4967 38.2047 22.4649 37.5949C21.7992 37.287 21.1286 36.9621 20.5637 36.6602C20.3778 36.5596 20.1932 36.459 20.0109 36.356C20.0085 36.3572 20.0061 36.3584 20.0036 36.3608C18.2421 35.3655 16.5474 34.1653 14.9487 32.7857C11.9322 30.178 9.37618 27.0163 7.35103 23.3867C5.09992 19.3557 3.8219 15.3236 3.11 11.7812C5.27729 10.5653 7.93537 9.35661 11.7524 8.11399C14.5223 7.31144 17.5035 6.88349 20.4944 6.88349C24.7877 6.88349 29.0652 7.75999 32.7194 9.37115C32.6016 10.1022 32.4534 10.889 32.2639 11.7158C32.1096 12.3947 31.9274 13.1014 31.716 13.83C32.4485 14.0895 33.1774 14.3671 33.899 14.6617C34.5903 14.9417 35.2767 15.2375 35.9558 15.5479C36.6677 15.8764 37.3747 16.2183 38.0733 16.5771C38.2992 15.8473 38.4985 15.1345 38.6734 14.4398C39.6125 10.7483 39.904 7.60361 40.0024 5.58632C34.6243 2.10457 27.6389 0 20.0012 0Z" fill="#1A1A1A"/>
<path d="M20.4908 32.9176C20.4908 32.9176 20.492 32.9176 20.492 32.9164C20.4629 32.8994 20.4337 32.8812 20.4058 32.8643C20.4337 32.8837 20.4629 32.9006 20.4896 32.9176H20.4908Z" fill="#1A1A1A"/>
<path d="M20.4896 24.1068C18.8313 22.532 17.399 20.6723 16.223 18.5653C15.646 17.5312 15.137 16.4426 14.6935 15.3054C14.5891 15.3285 14.4858 15.3551 14.3825 15.3806C13.735 15.5443 13.09 15.7346 12.4546 15.9504C12.9174 17.1675 13.4884 18.432 14.1906 19.6928C15.6727 22.3489 17.5326 24.6523 19.7194 26.5423C19.9708 26.7605 20.2284 26.9739 20.492 27.1812C20.7532 26.9751 21.0095 26.7618 21.2598 26.546C23.4489 24.6535 25.3089 22.3489 26.7922 19.6916C28.5282 16.5844 29.4551 13.4579 29.9496 11.0345C29.2425 10.7714 28.5124 10.5386 27.7665 10.335C27.6462 10.9326 27.5065 11.5254 27.3498 12.1098C27.1287 12.9257 26.8712 13.7355 26.576 14.5332C26.5614 14.5708 26.548 14.6084 26.5334 14.6459C26.039 16.0231 25.4461 17.3324 24.7598 18.5629C23.585 20.6675 22.1515 22.5284 20.492 24.1068H20.4896Z" fill="#1A1A1A"/>
</svg>
