<svg width="28" height="28" viewBox="0 0 28 28" fill="none" xmlns="http://www.w3.org/2000/svg">
<path d="M24.7449 18.5383C24.0027 20.2935 22.8418 21.8402 21.3638 23.0432C19.8857 24.2461 18.1355 25.0686 16.2661 25.4389C14.3967 25.8091 12.4651 25.7158 10.6401 25.1671C8.81508 24.6183 7.1523 23.6309 5.79709 22.2911C4.44188 20.9513 3.43552 19.2999 2.86597 17.4813C2.29643 15.6626 2.18106 13.7322 2.52993 11.8587C2.87881 9.98522 3.68131 8.22571 4.86729 6.73401C6.05326 5.24232 7.5866 4.06385 9.33323 3.30165M25.6666 14C25.6666 12.4679 25.3648 10.9508 24.7785 9.53534C24.1922 8.11987 23.3328 6.83375 22.2495 5.7504C21.1661 4.66705 19.88 3.80769 18.4645 3.22139C17.0491 2.63508 15.532 2.33331 13.9999 2.33331V14H25.6666Z" stroke="#002E72" stroke-width="2.33333" stroke-linecap="round" stroke-linejoin="round"/>
</svg>
